/vscmnt/brussel_pixiu_data/_data_brussel/112/vsc11236/PredSimResults/SUBJ06opt3D/weighted-trackIG/worker_03.mot
version=1
nRows=7
nColumns=50
inDegrees=yes
endheader
                time	         pelvis_tilt	         pelvis_list	     pelvis_rotation	           pelvis_tx	           pelvis_ty	           pelvis_tz	       hip_flexion_r	     hip_adduction_r	      hip_rotation_r	        knee_angle_r	       ankle_angle_r	         mtp_angle_r	       hip_flexion_l	     hip_adduction_l	      hip_rotation_l	        knee_angle_l	       ankle_angle_l	         mtp_angle_l	    lumbar_extension	      lumbar_bending	     lumbar_rotation	 ercspn_r/activation	 intobl_r/activation	 extobl_r/activation	    abd_r/activation	    add_r/activation	hamstrings_r/activation	bifemsh_r/activation	glut_max_r/activation	iliopsoas_r/activation	rect_fem_r/activation	  vasti_r/activation	gastroc_r/activation	 soleus_r/activation	tib_ant_r/activation	 ercspn_l/activation	 intobl_l/activation	 extobl_l/activation	    abd_l/activation	    add_l/activation	hamstrings_l/activation	bifemsh_l/activation	glut_max_l/activation	iliopsoas_l/activation	rect_fem_l/activation	  vasti_l/activation	gastroc_l/activation	 soleus_l/activation	tib_ant_l/activation	
          0.61575227	         -6.65731139	          0.69318107	         -4.23300873	          0.68964254	          0.92720012	          0.01049521	         -9.54511851	         -0.24046396	         -6.23916277	        -11.34042305	          8.97573428	         33.72469953	         33.04773818	         -1.02076987	         -6.59148741	         -8.85102948	          0.11227094	          0.22924489	         -5.12449513	          0.32945627	          8.34260997	          0.16767908	          0.00999999	          0.00999999	          0.08253410	          0.00999999	          0.00999999	          0.26030323	          0.01457302	          0.68101590	          0.01205250	          0.00999999	          0.24343645	          0.39104231	          0.02110130	          0.18060201	          0.13645497	          0.00999999	          0.00999999	          0.43493007	          0.06696404	          0.11215959	          0.07706035	          0.11067604	          0.01104948	          0.00999999	          0.00999999	          0.00999999	          0.51183240	
          0.62806731	         -6.74519000	          0.66380290	         -4.25733890	          0.70667158	          0.92539990	          0.00964274	         -9.88585604	         -0.39964774	         -6.61469304	        -12.40790747	          7.98752780	         35.67343160	         33.21536991	         -0.92414638	         -6.41181447	        -10.83061634	         -0.12172037	          0.19777725	         -4.77472767	         -0.05761001	          8.82545441	          0.16625121	          0.00999999	          0.00999999	          0.06847878	          0.00999999	          0.01205250	          0.23485536	          0.01209128	          0.66565135	          0.00999999	          0.00999999	          0.20197992	          0.36553152	          0.01750781	          0.14984600	          0.11321708	          0.00999999	          0.00999999	          0.36086272	          0.07547437	          0.09305914	          0.10718720	          0.09182823	          0.00999999	          0.00999999	          0.01452628	          0.01452628	          0.54034114	
          0.64038236	         -6.80934814	          0.68268502	         -4.26167235	          0.72406574	          0.92387734	          0.00868514	        -10.04678428	         -0.64963108	         -6.98790621	        -13.85912291	          6.84929594	         37.68682837	         33.18037734	         -0.82652733	         -6.25847313	        -12.56955878	         -0.38758872	          0.18676973	         -4.40858728	         -0.49537280	          9.25907455	          0.16031409	          0.00999999	          0.00999999	          0.05681704	          0.00999999	          0.00999999	          0.22013752	          0.01003217	          0.64918712	          0.00999999	          0.00999999	          0.16758332	          0.33775108	          0.01452628	          0.15285713	          0.09393654	          0.00999999	          0.04905795	          0.33228139	          0.07658467	          0.07721143	          0.13443198	          0.07619014	          0.00999999	          0.00999999	          0.01205250	          0.01205250	          0.58583600	
          0.65269740	         -6.85116426	          0.72307878	         -4.24005912	          0.74159209	          0.92270758	          0.00759360	         -9.96558921	         -0.96860411	         -7.37133686	        -15.76869611	          5.51066856	         39.75713938	         33.03179798	         -0.72170115	         -6.26994420	        -14.13331533	         -0.74727411	          0.16469196	         -4.05554633	         -0.95001031	          9.63388533	          0.18735197	          0.00999999	          0.00999999	          0.04714126	          0.00999999	          0.00999999	          0.19966229	          0.00999999	          0.56352911	          0.00999999	          0.00999999	          0.13904436	          0.29108778	          0.01205250	          0.15634607	          0.07793941	          0.00999999	          0.09706948	          0.31699766	          0.07882525	          0.06406255	          0.14327984	          0.06321518	          0.00999999	          0.07325554	          0.00999999	          0.00999999	          0.63487939	
          0.66501245	         -6.87232642	          0.79200808	         -4.19662864	          0.75907662	          0.92201912	          0.00638532	         -9.60461705	         -1.36979505	         -7.76972687	        -18.15997233	          3.91065903	         41.81198846	         32.79502731	         -0.59348137	         -6.38364776	        -15.59628076	         -0.89908813	          0.12666467	         -3.72965114	         -1.42868201	          9.94745934	          0.22177171	          0.00999999	          0.00999999	          0.03911324	          0.00999999	          0.01295102	          0.17076041	          0.00999999	          0.46756171	          0.00999999	          0.00999999	          0.11536550	          0.24151636	          0.00999999	          0.15221793	          0.06466655	          0.00999999	          0.14804244	          0.28577927	          0.07724997	          0.05315288	          0.15763228	          0.05244981	          0.00999999	          0.13976902	          0.00999999	          0.00999999	          0.65195938	
          0.67732749	         -6.87629461	          0.89615584	         -4.13821696	          0.77633385	          0.92196876	          0.00507668	         -8.93695098	         -1.86554795	         -8.17620759	        -21.03080074	          2.02406565	         43.63513234	         32.47700074	         -0.41750956	         -6.50295508	        -17.00063049	         -0.54199678	          0.12234631	         -3.44309167	         -1.93550587	         10.20333924	          0.25726971	          0.00999999	          0.00999999	          0.03245237	          0.05901694	          0.09519328	          0.16252649	          0.00999999	          0.38793729	          0.00999999	          0.00999999	          0.09571909	          0.20038681	          0.00999999	          0.14367733	          0.05365402	          0.00999999	          0.19872407	          0.24538375	          0.07568941	          0.04410109	          0.13268809	          0.04351776	          0.00999999	          0.24268601	          0.00999999	          0.00999999	          0.59038151	
          0.68964254	         -6.86837058	          1.02623876	         -4.06984180	          0.79319820	          0.92271270	          0.00369627	         -7.94577210	         -2.44901365	         -8.59312899	        -24.36565314	         -0.08110136	         44.78055979	         32.02473697	         -0.18114539	         -6.54705535	        -18.23574422	          0.39137007	          0.27813438	         -3.20532785	         -2.45712785	         10.40592944	          0.27328435	          0.00999999	          0.00999999	          0.02692582	          0.16556799	          0.12856921	          0.14338198	          0.00999999	          0.32187268	          0.00999999	          0.00999999	          0.07941840	          0.16626151	          0.00999999	          0.13210087	          0.04451690	          0.00999999	          0.22787715	          0.22466082	          0.07325900	          0.03659080	          0.11009169	          0.03610681	          0.00999999	          0.30305804	          0.00999999	          0.00999999	          0.49306496	
